<svg xmlns="http://www.w3.org/2000/svg" width="67" height="28" viewBox="0 0 67 28">
    <g fill="none" fill-rule="evenodd">
        <path fill="#191919" d="M.87 27.202H66.09V.667H.87z"/>
        <path fill="#FFF" d="M52.303 9.327c.065.757-.559 1.865-.96 2.096l-.28-.297c.365-.547.293-1.8-.067-1.988l.038-.094c.294 0 .802.107.989.161.178.054.185.07.28.122M57.86 15.964c0 1.46-1.055 2.513-2.851 2.513-.705 0-1.666-.148-2.094-.364 0 0-.039-.06-.039-.309 0-.623.053-1.644.066-1.826h.373c.034.188.064.45.148.744.234.825.879 1.136 1.665 1.136.793 0 1.467-.434 1.467-1.329 0-.68-.415-1.02-1.214-1.713l-.466-.406c-1.004-.873-1.8-1.628-1.8-2.772 0-1.278 1.007-2.283 2.693-2.283a8.06 8.06 0 0 1 1.693.203c.1.024.16.043.16.122 0 .145-.053.874-.053 1.755h-.333c-.233-.857-.393-1.474-1.588-1.474-.948 0-1.334.652-1.334 1.243 0 .562.424 1.01 1.255 1.705l.465.392c1.208 1.013 1.788 1.554 1.788 2.663M41.04 9.856c-.505 0-.896.149-1.335.686-.366.456-1.717 3.11-2.024 3.828-.113.26-.175.277-.175.81v1.083c0 .18-.006.593.028 1.066.022.327.13.578.467.622.155.022.51.041.666.041v.352h-3.745v-.352c.156 0 .578-.02.68-.04.117-.025.375-.075.413-.623.033-.473.04-.887.04-1.066v-1.149c0-.394-.024-.413-.267-.866-.168-.31-1.476-2.846-1.865-3.435-.457-.683-.727-.957-1.465-.957v-.338h2.411s.043.15.373.848c.156.34 1.594 3.12 1.772 3.437l2.213-4.285h1.813v.338zM22.366 16.397s-.273 1.337-.36 1.661c-.067.25-.106.286-.106.286h-5.971v-.352c.167 0 .537-.034.638-.055.223-.045.32-.213.36-.541.05-.392.054-1.297.054-2.336v-2.205c0-1.718-.004-1.96-.027-2.324-.022-.387-.098-.566-.467-.651a4.422 4.422 0 0 0-.533-.025V9.52h2.494v.985s-.013.603-.013 2.298v2.214c0 1.55-.005 2.207.226 2.412.188.163.636.227 1.491.227.78 0 1.043-.032 1.308-.3.224-.226.327-.464.453-.958h.453zM15.129 16.397s-.272 1.337-.36 1.661c-.067.25-.106.286-.106.286H8.691v-.352c.168 0 .538-.034.639-.055.223-.045.32-.213.362-.541.047-.392.051-1.297.051-2.336v-2.205c0-1.718-.004-1.96-.027-2.324-.021-.387-.098-.566-.465-.651a4.46 4.46 0 0 0-.534-.025V9.52h2.493v.985s-.015.603-.015 2.298v2.214c0 1.55-.002 2.207.228 2.412.189.163.637.227 1.494.227.778 0 1.04-.032 1.306-.3.223-.226.326-.464.452-.958h.454zM49.023 14.06c0-1.473-.581-2.381-1.054-2.841-1.026-.995-2.247-1.12-3.105-1.12-.22 0-.63.04-.718.079-.098.048-.13.11-.132.23-.01.38-.015 1.353-.015 2.231v1.662c0 1.18.018 2.033.026 2.245.012.28.035.726.12.85.147.213.558.447 1.426.447 1.121 0 1.83-.22 2.492-.797.721-.631.96-1.84.96-2.985m1.546-.33c0 1.556-.589 2.723-1.213 3.368-.514.531-1.561 1.245-3.626 1.245h-4.318v-.352c.747-.023 1.025-.003 1.094-.635.054-.483.041-1.784.041-2.367v-2.135c0-1.718-.005-1.96-.027-2.325-.025-.386-.112-.565-.48-.65a4.44 4.44 0 0 0-.549-.024v-.337h3.52c1.394 0 3.25-.007 4.466 1.282.557.59 1.092 1.533 1.092 2.93M30.417 14.124c0-2.522-1.287-4.107-3.039-4.107-1.299 0-2.56 1-2.56 3.57 0 2.175 1.086 4.201 3.04 4.201 1.603 0 2.559-1.26 2.559-3.664m1.667-.404c0 2.637-1.698 4.773-4.52 4.773-3.123 0-4.373-2.468-4.373-4.571 0-2.137 1.313-4.567 4.48-4.567 2.788 0 4.413 1.777 4.413 4.365"/>
    </g>
</svg>
