<svg xmlns="http://www.w3.org/2000/svg" width="88" height="24" viewBox="0 0 88 24">
    <defs>
        <linearGradient id="a" x1="0%" x2="205.635%" y1="47.465%" y2="56.391%">
            <stop offset="0%" stop-color="#317BDA"/>
            <stop offset="100%" stop-color="#43C8CD"/>
        </linearGradient>
    </defs>
    <path fill="url(#a)" fill-rule="nonzero" d="M39.643 13.807c-2.108 0-3.163 1.123-3.163 3.37-.037.823.241 1.63.778 2.252a2.67 2.67 0 0 0 2.081.9 3.461 3.461 0 0 0 1.671-.441v-6.099l-1.367.018zm1.367 8.108a6.315 6.315 0 0 1-2.216.423 4.908 4.908 0 0 1-4.324-2.594 5.532 5.532 0 0 1-.661-2.703 6.07 6.07 0 0 1 .643-2.874 4.489 4.489 0 0 1 1.787-1.873 5.608 5.608 0 0 1 2.743-.649h4.574v14.198h-2.59l.044-3.928zm7.455-5.103a3.989 3.989 0 0 0 .68 2.487 2.333 2.333 0 0 0 1.938.9 2.44 2.44 0 0 0 2.001-.9 3.97 3.97 0 0 0 .733-2.568 3.697 3.697 0 0 0-.733-2.46 2.475 2.475 0 0 0-1.992-.9 2.36 2.36 0 0 0-1.93.9 3.76 3.76 0 0 0-.706 2.523l.01.018zm2.68-5.405a5.777 5.777 0 0 1 2.806.685 4.808 4.808 0 0 1 1.948 1.882c.467.855.704 1.818.688 2.793.022.99-.205 1.97-.662 2.847a4.754 4.754 0 0 1-1.947 1.928 5.778 5.778 0 0 1-2.832.702 5.715 5.715 0 0 1-2.824-.702 4.781 4.781 0 0 1-1.93-1.928 5.887 5.887 0 0 1-.66-2.847 5.576 5.576 0 0 1 .732-2.793 4.88 4.88 0 0 1 1.948-1.9 5.725 5.725 0 0 1 2.734-.667zm9.069.237l2.34 6.063 2.315-6.063h2.77L63.17 22.31h-1.224l-4.53-10.666h2.797zm15.488 4.136a3.133 3.133 0 0 0-.652-1.801 1.887 1.887 0 0 0-1.51-.649 2.099 2.099 0 0 0-1.582.613 3.13 3.13 0 0 0-.76 1.801l4.504.036zm-2.27-4.369a4.308 4.308 0 0 1 3.405 1.478 6.08 6.08 0 0 1 1.268 4.09v.414h-6.95a3.3 3.3 0 0 0 .991 2.153 3.26 3.26 0 0 0 2.278.72c.612 0 1.218-.116 1.787-.342a7.726 7.726 0 0 0 1.787-1.036v2.054a6.83 6.83 0 0 1-4.208 1.298 5.15 5.15 0 0 1-3.824-1.487 5.376 5.376 0 0 1-1.483-3.964 5.587 5.587 0 0 1 1.367-3.9 4.591 4.591 0 0 1 3.582-1.478zm12.38-.005c.353.002.701.085 1.018.244a5.65 5.65 0 0 1 1.17.828l-.893 2.406a3.34 3.34 0 0 0-1.787-.901c-.44.015-.86.184-1.189.477-.44.347-.786.8-1.01 1.316a3.774 3.774 0 0 0-.357 1.567v4.739h-2.6V11.605h2.6v2.702a7.286 7.286 0 0 1 1.43-2.189 2.26 2.26 0 0 1 1.617-.712zM18.05 22.242l5.932 3.441c-.571.81-1.22 1.562-1.938 2.243l-2.618-1.522-.099-.063-.375.288c-5.253 3.947-12.684 2.854-16.6-2.441l3.342-1.946a7.995 7.995 0 0 0 12.356 0zM11.883 8.788c-4.476.025-8.084 3.703-8.06 8.216.002.94.165 1.873.483 2.757L.947 21.715a12.11 12.11 0 0 1 0-9.389c2.571-6.11 9.568-8.96 15.627-6.368 6.06 2.593 8.887 9.648 6.316 15.757l-3.35-1.954c.33-.913.496-1.876.49-2.847-.024-4.513-3.672-8.15-8.147-8.126z" transform="translate(0 -5)"/>
</svg>
