<svg xmlns="http://www.w3.org/2000/svg" width="14" height="14" viewBox="0 0 14 14">
    <g fill="none" fill-rule="evenodd">
        <path stroke="#FD5353" stroke-linecap="round" stroke-linejoin="round" stroke-width=".5" d="M5.001 13.158h1.13v.38c0 .193-.146.35-.326.35h-.48c-.18 0-.325-.157-.325-.35v-.38h.001zM9.001 13.218h1.13v.38a.365.365 0 0 1-.096.248.314.314 0 0 1-.23.103h-.48c-.18 0-.325-.157-.325-.35v-.38h.001z"/>
        <path fill="#FFE9E3" fill-rule="nonzero" d="M3.112 7.253h8v3.226h-8z"/>
        <path fill="#F9F7C7" fill-rule="nonzero" d="M3.814 4.149h6.594c.389 0 .704.278.704.62v2.545h-8V4.77c0-.343.314-.62.702-.621zM11.128 12.772c0-.021.007-.044.01-.065v-.041-2.196h-1.58v1.08c0 .231-.103.452-.288.615a1.053 1.053 0 0 1-.698.252H5.297c-.544 0-.984-.388-.984-.868v-1.08H3.14v2.113a.638.638 0 0 0 0 .08v.041c0 .021 0 .044.012.065.076.295.374.504.717.502h6.55c.338-.002.631-.208.709-.498z"/>
        <path fill="#FFE9E3" fill-rule="nonzero" d="M9.688 6.774v.308c0 .23-.102.452-.284.615a1.024 1.024 0 0 1-.685.253H5.503c-.534 0-.966-.39-.966-.87V5.6l.129.17c.265.357.71.572 1.188.572h.11v.433h.304v-.434h1.689v.433h.307V6.34h.11c.477 0 .922-.215 1.187-.571l.128-.172v1.176z"/>
        <path fill="#FFE9E3" fill-rule="nonzero" d="M9.688 8.97v1.571a.826.826 0 0 1-.285.612 1.023 1.023 0 0 1-.684.251H5.503c-.534 0-.966-.388-.966-.868V7.858l.129.173c.265.357.71.572 1.188.573h.11v.434h.304v-.434h1.689v.434h.307v-.434h.11c.477 0 .922-.213 1.187-.57l.128-.172V8.97z"/>
        <path fill="#FFE9E3" fill-rule="nonzero" stroke="#FD5353" stroke-linecap="round" stroke-linejoin="round" stroke-width=".5" d="M8.264 9.602v.432h-.307v-.661h.307zM8.264 6.34v.434h-.307V6.11h.307zM6.268 9.602v.432h-.304v-.661h.304zM6.268 6.34v.434h-.304V6.11h.304z"/>
        <path stroke="#FD5353" stroke-linecap="round" stroke-linejoin="round" stroke-width=".5" d="M4.503 5.658h5.148v1.297c0 .561-.505 1.016-1.13 1.016H5.634c-.3 0-.587-.107-.799-.298a.966.966 0 0 1-.33-.718V5.658zM4.503 8.823h5.148v2.348c0 .384-.346.695-.773.695H5.277a.82.82 0 0 1-.547-.203.661.661 0 0 1-.227-.492V8.823z"/>
        <path fill="#FD5353" d="M9 4.5h-.448v-.992H5.448V4.5H5V1.636c0-.3.121-.59.338-.803C5.555.62 5.848.5 6.156.5h1.687c.307 0 .602.12.819.333.217.213.338.502.338.803V4.5zm-.448-1.438V1.636a.689.689 0 0 0-.208-.49.714.714 0 0 0-.5-.203H6.155a.7.7 0 0 0-.708.693v1.426h3.104z"/>
        <path stroke="#FD5353" stroke-linecap="round" stroke-linejoin="round" stroke-width=".5" d="M3.61 4h6.78c.337 0 .61.278.61.62v7.707c0 .41-.327.744-.731.744H3.731A.737.737 0 0 1 3 12.327V4.621C3 4.278 3.273 4 3.61 4z"/>
    </g>
</svg>
