<svg xmlns="http://www.w3.org/2000/svg" width="92" height="68" viewBox="0 0 92 68">
    <g fill="none" fill-rule="nonzero">
        <path stroke="#FFE9E3" stroke-width="1.696" d="M77.606 43.17l-.305.81a31.125 31.125 0 0 0-1.556 13.533 26.332 26.332 0 0 1-10.847-8.797l-.827-1.152-1.409.14c-1.464.146-2.909.22-4.292.22-17.61 0-31.935-10.525-31.935-23.462S40.76 1 58.37 1c17.609 0 31.934 10.525 31.934 23.462 0 7.107-4.357 13.765-11.954 18.267l-.744.44z"/>
        <path fill="#FFE9E3" d="M78.73 44.46l-.278.737a28.28 28.28 0 0 0-1.419 12.316 23.994 23.994 0 0 1-9.887-8.005l-.754-1.049-1.284.128c-1.335.132-2.651.2-3.912.2-16.051 0-29.109-9.578-29.109-21.35 0-11.773 13.058-21.35 29.109-21.35 16.05 0 29.108 9.577 29.108 21.35 0 6.467-3.971 12.526-10.896 16.623l-.678.4z" opacity=".3"/>
        <path stroke="#DAF6F1" stroke-width="1.696" d="M9.877 56.514l.214.567a21.813 21.813 0 0 1 1.088 9.474 18.414 18.414 0 0 0 7.583-6.158l.578-.806.985.098c1.024.102 2.034.153 3.001.153 12.31 0 22.326-7.367 22.326-16.423 0-9.056-10.015-16.423-22.326-16.423C11.016 26.996 1 34.363 1 43.419c0 4.975 3.046 9.636 8.358 12.787l.52.308z"/>
        <path fill="#DAF6F1" d="M9.203 57.232l.197.526a20.348 20.348 0 0 1 1.006 8.797 17.032 17.032 0 0 0 7.007-5.718l.534-.749.91.091c.947.095 1.88.143 2.773.143 11.376 0 20.63-6.841 20.63-15.25 0-8.41-9.254-15.25-20.63-15.25-11.375 0-20.63 6.84-20.63 15.25 0 4.62 2.815 8.947 7.723 11.873l.48.287z" opacity=".3"/>
        <path fill="#FFE9E3" d="M47.63 26.43a3.108 3.108 0 1 1 0-6.216 3.108 3.108 0 0 1 0 6.217zm10.74 0a3.108 3.108 0 1 1 0-6.216 3.108 3.108 0 0 1 0 6.217zm10.739 0a3.108 3.108 0 1 1 0-6.216 3.108 3.108 0 0 1 0 6.217z"/>
    </g>
</svg>
