<svg xmlns="http://www.w3.org/2000/svg" width="16" height="12" viewBox="0 0 16 12">
    <g fill="none" fill-rule="evenodd">
        <g stroke="#FD5353" stroke-linecap="round" stroke-linejoin="round" stroke-width=".5" transform="translate(1 7.4)">
            <circle cx="10.8" cy="2.8" r="1"/>
            <circle cx="3" cy="2.8" r="1"/>
            <path fill="#FFE9E3" d="M14 .2v2.138c0 .43-.328.77-.744.77h-.81c0-.067.023-.158.023-.226 0-.975-.766-1.769-1.707-1.769-.94 0-1.706.794-1.706 1.77 0 .067 0 .158.022.226H4.725c.022-.068.022-.159.022-.227 0-.975-.766-1.769-1.706-1.769-.941 0-1.707.794-1.707 1.77 0 .067 0 .158.022.226H.22A.223.223 0 0 1 0 2.882V.2h14z"/>
        </g>
        <path fill="#F9F7C7" stroke="#FD5353" stroke-linecap="round" stroke-linejoin="round" stroke-width=".5" d="M14.387 6.156l-1.268-.273-1.16-2.403a.228.228 0 0 0-.197-.114h-.59v-.385a.87.87 0 0 0-.853-.884c-.482 0-.853.408-.853.884v.385h-.819V2.165c0-.114-.11-.227-.219-.227h-7.21c-.109 0-.218.113-.218.227v4.784h14v-.045c0-.386-.262-.703-.613-.748z"/>
        <path fill="#FFF" d="M3.144 3.775c0 .09-.066.158-.153.158h-.897c-.088 0-.131-.068-.131-.158v-.68c0-.091.065-.16.13-.16h.898c.087 0 .153.069.153.16v.68zM8.022 3.775c0 .09-.066.158-.131.158h-.897c-.088 0-.131-.068-.131-.158v-.68c0-.091.065-.16.13-.16h.898c.087 0 .13.069.13.16v.68z"/>
        <path fill="#FFF" stroke="#FD5353" stroke-width=".5" d="M11.879 5.813l-.742-1.563H9.716v1.563h2.163z"/>
        <path fill="#FD5353" d="M6.272 4.733c0 .09-.066.158-.153.158h-.7v.749c0 .068-.066.136-.131.136h-.591c-.088 0-.131-.068-.131-.136V4.89h-.722c-.088 0-.153-.068-.153-.158V4.12c0-.068.065-.136.153-.136h.7v-.748c0-.09.065-.136.131-.136h.59c.088 0 .132.068.132.136v.748h.7c.087 0 .153.068.153.136l.022.613z"/>
        <g fill="#FD5353" fill-rule="nonzero">
            <path d="M9.4 1.36l-.35-.158c-.11-.046-.153-.182-.11-.295.044-.113.176-.159.285-.113l.35.158c.11.046.153.182.11.295-.044.114-.176.182-.285.114zM10.319.839c-.131 0-.219-.09-.219-.227V.227c0-.136.088-.227.219-.227s.219.09.219.227v.408c0 .113-.11.204-.22.204zM10.953 1.247c-.044-.113 0-.25.11-.295l.35-.158c.109-.046.24 0 .284.113.044.113 0 .25-.11.295l-.35.159c-.109.068-.24 0-.284-.114z"/>
        </g>
        <path fill="#FD5353" fill-rule="nonzero" d="M9.5 2.3h1.63v1.33H9.5z"/>
    </g>
</svg>
