<svg xmlns="http://www.w3.org/2000/svg" width="16" height="16" viewBox="0 0 16 16">
    <g fill="none" fill-rule="evenodd" transform="translate(1 1.008)">
        <ellipse cx="7.5" cy="6.531" fill="#FFE9E3" fill-rule="nonzero" rx="6.5" ry="6.462"/>
        <path stroke="#FD5353" stroke-linecap="round" stroke-linejoin="round" stroke-width=".5" d="M10.086 12.46C12.39 11.468 14 9.187 14 6.53 14 2.963 11.09.07 7.5.07a6.503 6.503 0 0 0-5.896 3.738M7.7.07v.86M13.2 6.315h.8"/>
        <path fill="#F9F7C7" fill-rule="nonzero" d="M1.429 5.61c.174.001.334.072.49.147l.23 1.454-.782.782a.38.38 0 0 0-.098.368 6.094 6.094 0 0 0 1.566 2.702 6.089 6.089 0 0 0 2.7 1.563c.132.037.273 0 .37-.098l.78-.782 1.453.234c.076.155.146.316.147.49a1.137 1.137 0 0 1-1.286 1.132 6.856 6.856 0 0 1-4.774-2.073A6.85 6.85 0 0 1 .293 6.862 1.137 1.137 0 0 1 1.429 5.61z"/>
        <path stroke="#FD5353" stroke-linecap="round" stroke-linejoin="round" stroke-width=".5" d="M1.682 5.394c.104.028.213.074.346.139l.117.057.27 1.708-.09.09-.781.782a.13.13 0 0 0-.034.125c.267.98.782 1.872 1.496 2.589l.005.002a5.84 5.84 0 0 0 2.59 1.5.13.13 0 0 0 .127-.035l.87-.872 1.708.274.057.117c.118.242.171.402.172.6a1.387 1.387 0 0 1-1.538 1.382h-.003a7.106 7.106 0 0 1-4.949-2.149 7.098 7.098 0 0 1-2-4.797V6.89A1.387 1.387 0 0 1 1.43 5.36h.253v.034z"/>
        <g fill="#FD5353" fill-rule="nonzero">
            <path d="M7.902 4.402a.359.359 0 0 0-.102.258v1.794a.359.359 0 0 0 .361.36h1.434V7.89a.36.36 0 1 0 .718 0V6.486a.359.359 0 0 0 0-.059V4.66a.359.359 0 1 0-.718 0v1.436H8.519V4.66a.359.359 0 0 0-.617-.258zM4.867 4.299a.36.36 0 1 0 0 .718h.9c.304 0 .537.233.537.538a.531.531 0 0 1-.538.541h-.18c-.59 0-1.077.485-1.077 1.076v.718c.001.197.16.357.358.358h1.798a.36.36 0 0 0 0-.718H5.228v-.358c0-.205.153-.358.358-.358h.18c.69 0 1.256-.57 1.256-1.26A1.26 1.26 0 0 0 5.766 4.3h-.899z"/>
        </g>
    </g>
</svg>
