<svg xmlns="http://www.w3.org/2000/svg" width="25" height="17" viewBox="0 0 25 17">
    <g fill="#FFE59A" fill-rule="nonzero">
        <path d="M2.486 0C1.123 0 0 1.188 0 2.63v11.693c0 1.442 1.123 2.63 2.486 2.63h19.333c1.362 0 2.485-1.188 2.485-2.63V2.631C24.304 1.188 23.181 0 21.82 0H2.486zm.483 1.754h18.366l-8.89 8.404c-.12.114-.465.114-.586 0l-8.89-8.404zM1.657 2.859l6.206 5.874-6.206 5.435V2.859zm20.99 0v11.309l-6.205-5.435 6.205-5.874zM9.114 9.911l1.64 1.553a1.998 1.998 0 0 0 2.796 0l1.64-1.553 6.042 5.289H3.072L9.115 9.91z"/>
        <path d="M1.13 3.391h19.783v12.998H1.13z" opacity=".3"/>
    </g>
</svg>
