<svg xmlns="http://www.w3.org/2000/svg" width="31" height="31" viewBox="0 0 31 31">
    <g fill="none" fill-rule="nonzero">
        <path stroke="#FFE9E3" stroke-width="1.696" d="M1 6.648v.008c0 .19.002.383.024.576v-.11C1.137 12.69 3.368 17.974 7.16 22.04v.009c.056.13.135.25.234.351a22.605 22.605 0 0 0 15.724 6.832c.163.012.33.025.493.025 3.11.001 5.652-2.549 5.65-5.657a5.63 5.63 0 0 0-.918-3.077 1.13 1.13 0 0 0-.766-.5l-5.543-.875a1.131 1.131 0 0 0-.976.317L18.919 21.6c-2.427-.758-4.695-1.965-6.502-3.761-1.797-1.804-3.012-4.077-3.772-6.501l2.145-2.143a1.13 1.13 0 0 0 .318-.976l-.868-5.523a1.13 1.13 0 0 0-.501-.768A5.672 5.672 0 0 0 6.649 1C3.54.998 1 3.54 1 6.648z"/>
        <path fill="#FFE9E3" d="M3.26 8.456v.008c.001.176.003.352.023.53v-.101c.103 5.121 2.156 9.983 5.644 13.724v.008c.051.12.124.23.216.323a20.797 20.797 0 0 0 14.466 6.285c.15.012.303.023.453.023 2.86.001 5.2-2.345 5.199-5.205a5.18 5.18 0 0 0-.845-2.83 1.04 1.04 0 0 0-.705-.46l-5.1-.806a1.04 1.04 0 0 0-.898.293l-1.967 1.963c-2.233-.697-4.32-1.807-5.981-3.46-1.654-1.66-2.771-3.75-3.47-5.98l1.973-1.972a1.04 1.04 0 0 0 .292-.898l-.798-5.08a1.04 1.04 0 0 0-.462-.708 5.218 5.218 0 0 0-2.842-.852 5.207 5.207 0 0 0-5.197 5.195z" opacity=".3"/>
    </g>
</svg>
