<svg xmlns="http://www.w3.org/2000/svg" xmlns:xlink="http://www.w3.org/1999/xlink" width="14" height="14" viewBox="0 0 14 14">
    <defs>
        <path id="a" d="M7.02 6.527a.18.18 0 0 1 .126.05.17.17 0 0 1 .052.123v.256h-.353V6.7a.174.174 0 0 1 .174-.173zm-.175 1.287h.353v2.935a.51.51 0 0 1 .344.434h.36c.063 0 .122.032.154.085a.168.168 0 0 1 0 .173.178.178 0 0 1-.155.085H6.142a.178.178 0 0 1-.155-.085.168.168 0 0 1 0-.173.178.178 0 0 1 .155-.085h.36a.51.51 0 0 1 .343-.434V7.814zM4.9 7.213H9.14c.077 0 .145.049.168.12l.706 2.231a.165.165 0 0 1 .008.05c0 .471-.395.855-.879.859-.484 0-.882-.38-.886-.85 0-.018.003-.036.008-.053L8.9 7.556H5.143l.636 2.008a.167.167 0 0 1 .008.05c0 .471-.395.855-.88.859-.483 0-.881-.38-.885-.85 0-.018.002-.036.007-.053l.706-2.236a.178.178 0 0 1 .164-.121zm.005.756L4.44 9.443h.932L4.904 7.97zm4.236 0l-.466 1.474h.932L9.14 7.97z"/>
    </defs>
    <g fill="none" fill-rule="evenodd">
        <path stroke="#FD5353" stroke-linecap="round" stroke-linejoin="round" stroke-width=".5" d="M10.868 6.8c.06.345-.014.7-.209.988a1.28 1.28 0 0 1-.828.545L3.69 12.63a1.256 1.256 0 0 1-.961-.214c-.28-.2-.471-.506-.531-.85l-.824-4.63c-.127-.715.332-1.49.972-1.872L8.493.761c.336-.063.682.015.961.214.28.2.471.506.531.851l.883 4.975z"/>
        <path fill="#FFE9E3" fill-rule="nonzero" d="M10.868 7.257c.06.345-.014.7-.209.987a1.28 1.28 0 0 1-.828.546L3.69 13.087a1.256 1.256 0 0 1-.961-.215c-.28-.2-.471-.506-.531-.85l-.824-4.63c-.127-.715.332-1.49.972-1.871l6.148-4.304c.336-.062.682.015.961.215.28.2.471.506.531.85l.883 4.975z"/>
        <path fill="#F9F7C7" fill-rule="nonzero" d="M2.64 10.832L3.923.235l4.778.613-1.286 10.597z"/>
        <path stroke="#FD5353" stroke-linecap="round" stroke-linejoin="round" stroke-width=".5" d="M2.342 10.831L3.627.235l4.777.612L7.12 11.444z"/>
        <path fill="#FFE9E3" fill-rule="nonzero" d="M6.725 10.041l.971-8.005.106.013-.97 8.006z"/>
        <path fill="#F9F7C7" fill-rule="nonzero" d="M3.625 10.243L7.377.206l4.526 1.789L8.15 12.032z"/>
        <path stroke="#FD5353" stroke-linecap="round" stroke-linejoin="round" stroke-width=".5" d="M3.328 10.09L7.081.053l4.525 1.79-3.753 10.036z"/>
        <path fill="#FFE9E3" fill-rule="nonzero" d="M2.43 6.465l7.934-1.487a1.322 1.322 0 0 1 1.546 1.069l.82 4.628a1.322 1.322 0 0 1-1.058 1.53l-7.934 1.487a1.322 1.322 0 0 1-1.545-1.069l-.82-4.628a1.322 1.322 0 0 1 1.058-1.53z"/>
        <path stroke="#FD5353" stroke-linecap="round" stroke-linejoin="round" stroke-width=".5" d="M2.43 6.16l7.934-1.486a1.322 1.322 0 0 1 1.546 1.069l.82 4.628a1.322 1.322 0 0 1-1.058 1.53l-7.934 1.487a1.322 1.322 0 0 1-1.545-1.069l-.82-4.628a1.322 1.322 0 0 1 1.058-1.53z"/>
        <path fill="#FFE9E3" fill-rule="nonzero" d="M10.822 10.804l1.2-.224a.124.124 0 0 1 .145.1l.076.433a.124.124 0 0 1-.099.143l-1.2.225a.124.124 0 0 1-.144-.1l-.077-.433a.124.124 0 0 1 .1-.144zM5.697 10.648a.5.5 0 1 1-.992-.122.5.5 0 0 1 .992.122zm-.868-.107a.375.375 0 1 0 .742.084.375.375 0 0 0-.74-.084h-.002z"/>
        <use fill="#FD5353" transform="rotate(-11 7.022 9.026)" xlink:href="#a"/>
    </g>
</svg>
