<svg xmlns="http://www.w3.org/2000/svg" xmlns:xlink="http://www.w3.org/1999/xlink" width="92" height="21" viewBox="0 0 92 21">
    <defs>
        <path id="a" d="M27.768 8.12c2.687-2.677 7.068-2.668 9.767.021 2.698 2.69 2.707 7.055.02 9.733-.305.303-.71.47-1.14.47h-.004c-.431-.001-.837-.17-1.143-.474a1.61 1.61 0 0 1-.004-2.279 3.61 3.61 0 0 0 1.067-2.584 3.645 3.645 0 0 0-1.08-2.59c-1.435-1.431-3.764-1.437-5.193-.013l-2.84 2.83c-.304.304-.71.47-1.14.47h-.004a1.615 1.615 0 0 1-1.143-.473 1.604 1.604 0 0 1-.004-2.28l2.84-2.83zm3.296 4.68a1.623 1.623 0 0 1 2.763 1.144c0 .43-.167.835-.472 1.14l-2.841 2.83a6.869 6.869 0 0 1-4.865 2.002 6.926 6.926 0 0 1-4.902-2.022c-2.698-2.689-2.707-7.055-.02-9.733a1.623 1.623 0 0 1 2.287.004 1.61 1.61 0 0 1 .004 2.28c-1.429 1.423-1.423 3.744.012 5.174 1.435 1.43 3.765 1.436 5.193.013l2.841-2.831zm41.206 1.547v-.596l-3.01.46c-.922.136-1.654.65-1.654 1.68 0 .786.57 1.545 1.736 1.545 1.518 0 2.928-.731 2.928-3.09zm3.525-3.28v6.559c0 .705.082 1.653.163 2.114H72.65c-.082-.352-.136-1.084-.136-1.6-.678 1.058-1.952 1.98-3.931 1.98-2.848 0-4.583-1.925-4.583-4.012 0-2.384 1.763-3.712 3.986-4.037l3.281-.488c.76-.109 1.003-.488 1.003-.949 0-.948-.732-1.734-2.25-1.734-1.573 0-2.44 1.002-2.55 2.168l-3.199-.678C64.488 8.304 66.413 6 69.993 6c4.23 0 5.802 2.385 5.802 5.068zM57.537 6c2.468 0 4.827 1.49 4.827 5.068v8.645h-3.498V11.8c0-1.437-.705-2.52-2.36-2.52-1.545 0-2.467 1.192-2.467 2.628v7.805H50.46V11.8c0-1.437-.732-2.52-2.359-2.52-1.573 0-2.495 1.164-2.495 2.628v7.805H42V6.379h3.444v1.626C46.176 6.705 47.884 6 49.348 6c1.817 0 3.281.786 3.959 2.222C54.365 6.596 55.775 6 57.537 6zm27.404 10.72c1.844 0 3.281-1.408 3.281-3.82 0-2.385-1.437-3.713-3.28-3.713-1.844 0-3.309 1.355-3.309 3.74 0 2.385 1.41 3.794 3.308 3.794zm6.78.489c0 .894.054 1.87.108 2.412h-3.444a9.184 9.184 0 0 1-.135-1.545c-.597 1.057-1.953 1.87-3.742 1.87-3.797 0-6.508-2.981-6.508-7.02 0-3.902 2.63-6.964 6.4-6.964 2.304 0 3.389.949 3.768 1.653V0h3.552v17.209zm-79.058-4.092V.407h3.742V19.62h-3.932L3.742 5.989v13.632H0V.406h4.664l7.999 12.71z"/>
    </defs>
    <use fill="#171C34" fill-rule="evenodd" xlink:href="#a"/>
</svg>
