<svg xmlns="http://www.w3.org/2000/svg" xmlns:xlink="http://www.w3.org/1999/xlink" width="7" height="6" viewBox="0 0 7 6">
    <defs>
        <path id="a" d="M7.02 6.527a.18.18 0 0 1 .126.05.17.17 0 0 1 .052.123v.256h-.353V6.7a.174.174 0 0 1 .174-.173zm-.175 1.287h.353v2.935a.51.51 0 0 1 .344.434h.36c.063 0 .122.032.154.085a.168.168 0 0 1 0 .173.178.178 0 0 1-.155.085H6.142a.178.178 0 0 1-.155-.085.168.168 0 0 1 0-.173.178.178 0 0 1 .155-.085h.36a.51.51 0 0 1 .343-.434V7.814zM4.9 7.213H9.14c.077 0 .145.049.168.12l.706 2.231a.165.165 0 0 1 .008.05c0 .471-.395.855-.879.859-.484 0-.882-.38-.886-.85 0-.018.003-.036.008-.053L8.9 7.556H5.143l.636 2.008a.167.167 0 0 1 .008.05c0 .471-.395.855-.88.859-.483 0-.881-.38-.885-.85 0-.018.002-.036.007-.053l.706-2.236a.178.178 0 0 1 .164-.121zm.005.756L4.44 9.443h.932L4.904 7.97zm4.236 0l-.466 1.474h.932L9.14 7.97z"/>
    </defs>
    <use fill="#FD5353" fill-rule="evenodd" transform="rotate(-11 -26.134 26.797)" xlink:href="#a"/>
</svg>
