<svg xmlns="http://www.w3.org/2000/svg" width="14" height="14" viewBox="0 0 14 14">
    <g fill="none" fill-rule="evenodd">
        <path fill="#F9F7C7" fill-rule="nonzero" d="M12.248 13.975H3.103c-.291 0-.584-.18-.584-.467V5.902a.578.578 0 0 1 .584-.528h9.145v8.601z"/>
        <path stroke="#FD5353" stroke-linecap="round" stroke-linejoin="round" stroke-width=".5" d="M11.78 13.975H2.637c-.292 0-.585-.18-.585-.467V5.902a.578.578 0 0 1 .585-.528h9.145v8.601z"/>
        <path fill="#FFE9E3" fill-rule="nonzero" d="M13.41.594v10.002H4.934V.594c0-.29.167-.541.458-.541h7.616c.293 0 .404.249.404.541z"/>
        <path stroke="#FD5353" stroke-linecap="round" stroke-linejoin="round" stroke-width=".5" d="M12.943.594v10.002H4.465V.594c0-.29.167-.541.459-.541h7.616c.293 0 .403.249.403.541z"/>
        <g fill="#FFE9E3" fill-rule="nonzero" stroke="#FD5353" stroke-linecap="round" stroke-linejoin="round" stroke-width=".5" transform="translate(6 1.176)">
            <ellipse cx="1.001" cy="3.912" rx="1.001" ry="1"/>
            <ellipse cx="4.613" cy="3.912" rx="1.001" ry="1"/>
            <ellipse cx="1.001" cy=".999" rx="1.001" ry="1"/>
            <ellipse cx="4.613" cy=".999" rx="1.001" ry="1"/>
        </g>
        <g fill="#FFF" fill-rule="nonzero" transform="translate(6.2 1.3)">
            <ellipse cx="4.369" cy="3.833" rx="1" ry="1"/>
            <ellipse cx=".869" cy="3.833" rx="1" ry="1"/>
            <ellipse cx="4.369" cy=".833" rx="1" ry="1"/>
            <ellipse cx=".869" cy=".833" rx="1" ry="1"/>
        </g>
        <path fill="#FFE9E3" fill-rule="nonzero" d="M13.333 13.975H3.359v-8.6h9.974a.578.578 0 0 1 .584.527v7.602c-.001.29-.293.471-.584.471z"/>
        <path stroke="#FD5353" stroke-linecap="round" stroke-linejoin="round" stroke-width=".5" d="M13.333 13.975H3.359v-8.6h9.974a.578.578 0 0 1 .584.527v7.602c-.001.29-.293.471-.584.471z"/>
        <path fill="#FD5353" fill-rule="nonzero" d="M9.333 8.667H11v1.666H9.333V12H7.667v-1.667H6V8.667h1.667V7h1.666v1.667z"/>
    </g>
</svg>
