<svg xmlns="http://www.w3.org/2000/svg" xmlns:xlink="http://www.w3.org/1999/xlink" width="65" height="15" viewBox="0 0 65 15">
    <defs>
        <path id="a" d="M19.437 5.685c1.881-1.875 4.948-1.868 6.837.014 1.889 1.882 1.895 4.938.014 6.813-.213.212-.496.329-.798.329h-.002a1.13 1.13 0 0 1-.803-1.927 2.527 2.527 0 0 0 .747-1.81 2.58 2.58 0 0 0-4.391-1.822l-1.989 1.982c-.212.213-.496.33-.797.33h-.003a1.13 1.13 0 0 1-1.133-1.13c-.001-.302.116-.585.33-.798l1.988-1.981zm2.308 3.275a1.136 1.136 0 0 1 1.934.8c0 .302-.117.586-.33.798l-1.99 1.982a4.808 4.808 0 0 1-3.404 1.402 4.848 4.848 0 0 1-3.432-1.416c-1.889-1.882-1.895-4.939-.014-6.813a1.136 1.136 0 0 1 1.6.003c.443.44.444 1.156.003 1.595-1 .996-.995 2.621.01 3.622a2.58 2.58 0 0 0 3.634.01l1.989-1.983zm28.844 1.083v-.418l-2.107.323c-.645.095-1.158.455-1.158 1.176 0 .55.399 1.081 1.215 1.081 1.063 0 2.05-.512 2.05-2.162zm2.468-2.296v4.591c0 .493.057 1.157.114 1.48h-2.316c-.057-.247-.095-.759-.095-1.12-.475.74-1.367 1.386-2.752 1.386-1.993 0-3.208-1.347-3.208-2.808 0-1.67 1.234-2.599 2.79-2.827l2.297-.341c.531-.076.702-.342.702-.664 0-.664-.512-1.214-1.575-1.214-1.101 0-1.709.702-1.784 1.517l-2.24-.474c.152-1.46 1.5-3.073 4.005-3.073 2.96 0 4.062 1.67 4.062 3.547zM40.276 4.2c1.727 0 3.378 1.043 3.378 3.547V13.8h-2.448v-5.54c0-1.005-.494-1.764-1.651-1.764-1.082 0-1.728.835-1.728 1.84V13.8h-2.505v-5.54c0-1.005-.513-1.764-1.651-1.764-1.101 0-1.747.816-1.747 1.84V13.8H29.4V4.466h2.41v1.138c.513-.91 1.709-1.404 2.734-1.404 1.271 0 2.296.55 2.77 1.556.741-1.139 1.728-1.556 2.962-1.556zm19.183 7.505c1.29 0 2.297-.987 2.297-2.675 0-1.67-1.006-2.6-2.297-2.6-1.29 0-2.316.95-2.316 2.619 0 1.67.987 2.656 2.316 2.656zm4.745.341c0 .626.038 1.309.076 1.688h-2.41a6.429 6.429 0 0 1-.095-1.08c-.418.739-1.367 1.308-2.62 1.308-2.657 0-4.555-2.087-4.555-4.913 0-2.732 1.841-4.876 4.48-4.876 1.613 0 2.372.664 2.638 1.158V0h2.486v12.046zM8.864 9.182V.285h2.62v13.45H8.73L2.62 4.191v9.542H0V.284h3.265l5.599 8.898z"/>
    </defs>
    <use fill="#171C34" fill-rule="evenodd" xlink:href="#a"/>
</svg>
