<svg xmlns="http://www.w3.org/2000/svg" width="15" height="15" viewBox="0 0 15 15">
    <g fill="none" fill-rule="evenodd" transform="translate(1)">
        <ellipse cx="6.508" cy="7.405" fill="#FFE9E3" fill-rule="nonzero" rx="6.453" ry="6.588"/>
        <path fill="#F9F7C7" fill-rule="nonzero" d="M6.253 5.218a.628.628 0 0 0-.078.062l.078-.062z"/>
        <path fill="#F9F7C7" fill-rule="nonzero" d="M6.33 3.213c-.2.019-.361-.285-.45-.413-.061-.09-.397-.165-.511-.224-.255-.12-.925-.252-.718-.659.092-.19.693-.552.661-.52.055-.053.113-.112.173-.165a6.081 6.081 0 0 0-4.278 2.525 1.45 1.45 0 0 0-.066.25c-.038.43.022.824.337 1.132.09.085.214.115.29.214a.714.714 0 0 0 .34.268c.22.075.273.215.421.404.144.153.263.329.352.52.097.267.807.267 1.04.397.338.182 1.65 1.094 2.028 1.043 0 0 .47-.01.373.352-.045.165-.19.264-.25.424a1.69 1.69 0 0 0-.036.408c-.017.143-.127 0-.017.242.055.111.118.218.19.318.105.202.238.388.394.552.12.119.385.257.448.43.036.218.03.442-.016.659-.058.342-.05.754-.14 1.07-.09.316-.19.407-.12.736.014.13.007.263-.02.39a.427.427 0 0 1-.038.073c.257-.025.513-.066.765-.123v-.013c.04-.104.218-.532.308-.56-.044-.373.507-.06.565-.44-.063-.035-.052-.017-.06-.073.011.07.264-.028.289.02.024.048.338-.426.374-.466.095-.086.175-.188.237-.301.184-.364.161-.3.511-.475-.048.025.36-.33.384-.474a3.42 3.42 0 0 1 .044-.494c.068-.2.229-.262.335-.432.084-.128.162-.337.05-.466-.196-.227-.806-.275-.943-.33-.4-.144-.504-.176-.534-.388-.052-.48-.634-.428-.784-.557-.418-.357-1.207-.504-1.586-.383-.277.09-.132.31-.394.18-.448-.218-.714-.385-.875-.676-.059-.109-.184-.04-.162-.165.023-.125.345-.473.021-.464-.248.008-.537.146-.563-.088-.034-.33-.056-.515.249-.713.248-.165.603-.311.806.025.061.099.215.476.29.23a2.413 2.413 0 0 0-.075-.523v-.045.041c.077-.105.171-.197.277-.271.087-.063.202-.134.228-.216.025-.083-.06-.134-.021-.223.14-.21.302-.406.484-.58"/>
        <path fill="#F9F7C7" fill-rule="nonzero" d="M7.493 13.516l.013-.033-.011.02v.011z"/>
        <ellipse cx="6.508" cy="7.405" stroke="#FD5353" stroke-linecap="round" stroke-linejoin="round" stroke-width=".5" rx="6.453" ry="6.588"/>
        <path stroke="#FD5353" stroke-linecap="round" stroke-linejoin="round" stroke-width=".5" d="M6.253 5.218a.628.628 0 0 0-.078.062l.078-.062z"/>
        <path stroke="#FD5353" stroke-linecap="round" stroke-linejoin="round" stroke-width=".5" d="M6.3 3.181c-.2.019-.362-.285-.45-.413-.062-.09-.398-.165-.512-.224-.255-.12-.924-.252-.718-.659.092-.19.694-.552.661-.52.055-.053.113-.112.173-.165a6.081 6.081 0 0 0-4.278 2.525 1.45 1.45 0 0 0-.066.25c-.037.43.022.824.337 1.132.09.085.214.115.29.214a.714.714 0 0 0 .34.268c.22.075.273.215.422.404.143.153.262.329.351.52.097.267.807.267 1.04.397.338.182 1.65 1.094 2.029 1.043 0 0 .469-.01.372.352-.045.165-.19.264-.25.424a1.69 1.69 0 0 0-.035.408c-.018.143-.128 0-.018.242.055.111.118.218.19.318.106.202.238.388.394.552.12.119.385.257.448.43.036.218.03.442-.016.659-.058.342-.05.754-.14 1.07-.09.316-.189.407-.12.736.014.13.007.263-.02.39a.427.427 0 0 1-.038.073c.258-.025.513-.066.765-.123v-.013c.04-.104.218-.532.308-.56-.043-.373.507-.06.565-.44-.063-.035-.052-.017-.06-.073.011.07.265-.028.289.02.024.048.339-.426.374-.466.095-.086.175-.188.237-.301.184-.364.162-.3.512-.475-.049.025.36-.33.384-.474a3.42 3.42 0 0 1 .043-.494c.068-.2.23-.262.336-.432.084-.128.161-.337.05-.466-.197-.227-.807-.275-.944-.33-.4-.144-.503-.176-.534-.388-.052-.48-.634-.428-.784-.557-.418-.357-1.207-.504-1.586-.383-.277.09-.132.31-.393.18-.449-.218-.715-.385-.876-.676-.058-.109-.184-.04-.162-.165.023-.125.346-.473.021-.464-.248.008-.537.146-.563-.088-.033-.33-.056-.515.249-.713.248-.165.603-.311.806.025.062.099.215.476.29.23a2.413 2.413 0 0 0-.075-.523v-.045.041c.078-.105.171-.197.277-.271.088-.063.202-.134.228-.216.026-.083-.06-.134-.021-.223.14-.21.302-.406.484-.58M7.493 13.516l.013-.033-.011.02v.011z"/>
        <path fill="#FD5353" fill-rule="nonzero" d="M13.172 2.83c0 1.747-2.852 4.66-2.852 4.66S7.467 4.576 7.467 2.83C7.467 1.04 8.935 0 10.319 0s2.853 1.04 2.853 2.83z"/>
        <circle cx="10.267" cy="2.8" r="1.4" fill="#FFE9E3" fill-rule="nonzero"/>
    </g>
</svg>
